<?xml version="1.0" encoding="utf-8"?>
<!-- Generator: Adobe Illustrator 21.0.0, SVG Export Plug-In . SVG Version: 6.00 Build 0)  -->
<svg version="1.1" id="Capa_1" xmlns="http://www.w3.org/2000/svg" xmlns:xlink="http://www.w3.org/1999/xlink" x="0px" y="0px"
	 viewBox="0 0 90.7 90.7" style="enable-background:new 0 0 90.7 90.7;" xml:space="preserve">
<style type="text/css">
	.st0{fill:#FFFFFF;}
	.st1{fill:#232B38;}
</style>
<g id="icon" transform="translate(-514.645 -2312.643)">
	<g id="Group_1">
		<g id="bg">
			<path class="st0" d="M560,2401.9c-2.3,0-4.4-0.9-6-2.5l-35.4-35.4c-1.6-1.6-2.5-3.7-2.5-6c0-2.3,0.9-4.4,2.5-6l35.4-35.4
				c1.6-1.6,3.7-2.5,6-2.5c2.3,0,4.4,0.9,6,2.5l35.4,35.4c1.6,1.6,2.5,3.7,2.5,6c0,2.3-0.9,4.4-2.5,6l-35.4,35.4
				C564.4,2401,562.3,2401.9,560,2401.9z"/>
			<path class="st1" d="M560,2315.6c-1.9,0-3.6,0.7-4.9,2.1l-35.4,35.4c-1.3,1.3-2.1,3.1-2.1,4.9s0.7,3.6,2.1,4.9l35.4,35.4
				c1.3,1.3,3.1,2.1,5,2.1c1.9,0,3.6-0.7,4.9-2l35.4-35.4c1.3-1.3,2.1-3.1,2.1-4.9s-0.7-3.6-2.1-4.9l-35.4-35.4
				C563.6,2316.4,561.9,2315.6,560,2315.6 M560,2312.6c2.6,0,5.1,1,7.1,2.9l35.4,35.4c3.9,3.9,3.9,10.2,0,14.1l-35.4,35.4
				c-2,2-4.5,2.9-7.1,2.9c-2.6,0-5.1-1-7.1-2.9l-35.4-35.4c-3.9-3.9-3.9-10.2,0-14.1l35.4-35.4
				C554.9,2313.6,557.4,2312.6,560,2312.6z"/>
		</g>
	</g>
	<path id="_" class="st1" d="M554.7,2365.9c0,1.2-1,2.1-2.1,2.1c-1.2,0-2.1-1-2.1-2.1c0-1.2,1-2.1,2.1-2.1
		C553.8,2363.7,554.7,2364.7,554.7,2365.9z M548.3,2357.3v-0.5c0-0.1,0.1-0.3,0.2-0.4l3.3-3.3c0.1-0.1,0.2-0.1,0.4-0.2h2.6v4.3
		L548.3,2357.3z M569.7,2365.9c0,1.2-1,2.1-2.1,2.1c-1.2,0-2.1-1-2.1-2.1c0-1.2,1-2.1,2.1-2.1c0,0,0,0,0,0
		C568.7,2363.7,569.7,2364.7,569.7,2365.9L569.7,2365.9z M574,2347.6c0-0.6-0.5-1.1-1.1-1.1h-17.1c-0.6,0-1.1,0.5-1.1,1.1v3.2H552
		c-0.7,0-1.3,0.3-1.8,0.8l-3.3,3.3c-0.9,0.9-0.8,2.2-0.8,3.4v5.4c-0.6,0-1.1,0.5-1.1,1.1c0,1.2,1.3,1.1,2.1,1.1h1.1
		c0,2.4,1.9,4.3,4.3,4.3c2.4,0,4.3-1.9,4.3-4.3h6.4c0,2.4,1.9,4.3,4.3,4.3c2.4,0,4.3-1.9,4.3-4.3c0.8,0,2.1,0.2,2.1-1.1L574,2347.6z
		"/>
</g>
</svg>
