<?xml version="1.0" encoding="utf-8"?>
<!-- Generator: Adobe Illustrator 21.0.0, SVG Export Plug-In . SVG Version: 6.00 Build 0)  -->
<svg version="1.1" id="Capa_1" xmlns="http://www.w3.org/2000/svg" xmlns:xlink="http://www.w3.org/1999/xlink" x="0px" y="0px"
	 viewBox="0 0 90.7 90.7" style="enable-background:new 0 0 90.7 90.7;" xml:space="preserve">
<style type="text/css">
	.st0{fill:#EEBF00;}
	.st1{fill:#FFFFFF;}
</style>
<g id="icon" transform="translate(-914.645 -2312.643)">
	<g id="bg">
		<path class="st0" d="M960,2401.9c-2.3,0-4.4-0.9-6-2.5l-35.4-35.4c-1.6-1.6-2.5-3.7-2.5-6c0-2.3,0.9-4.4,2.5-6l35.4-35.4
			c1.6-1.6,3.7-2.5,6-2.5s4.4,0.9,6,2.5l35.4,35.4c1.6,1.6,2.5,3.7,2.5,6c0,2.3-0.9,4.4-2.5,6l-35.4,35.4
			C964.4,2401,962.3,2401.9,960,2401.9z"/>
		<path class="st0" d="M960,2315.6c-1.9,0-3.6,0.7-4.9,2.1l-35.4,35.4c-1.3,1.3-2.1,3.1-2.1,4.9s0.7,3.6,2.1,4.9l35.4,35.4
			c1.3,1.3,3.1,2,4.9,2s3.6-0.7,4.9-2l35.4-35.4c1.3-1.3,2.1-3.1,2.1-4.9s-0.7-3.6-2.1-4.9l-35.4-35.4
			C963.6,2316.4,961.9,2315.6,960,2315.6 M960,2312.6c2.6,0,5.1,1,7.1,2.9l35.4,35.4c3.9,3.9,3.9,10.2,0,14.1l-35.4,35.4
			c-2,2-4.5,2.9-7.1,2.9s-5.1-1-7.1-2.9l-35.4-35.4c-3.9-3.9-3.9-10.2,0-14.1l35.4-35.4C954.9,2313.6,957.4,2312.6,960,2312.6z"/>
	</g>
	<path id="_" class="st1" d="M955.7,2348.7v-2.1h8.6v2.1H955.7z M949.8,2348.7h-1.1c-2.1,0-3.7,1.7-3.8,3.8v13.9
		c0,2.1,1.7,3.7,3.8,3.8h1.1V2348.7z M968.6,2348.7h-2.1v-2.7c0-0.9-0.7-1.6-1.6-1.6h-9.6c-0.9,0-1.6,0.7-1.6,1.6v2.7h-2.1v21.4
		h17.1L968.6,2348.7z M975,2352.5c0-2.1-1.7-3.7-3.7-3.8h-1.1v21.4h1.1c2.1,0,3.7-1.7,3.7-3.8V2352.5z"/>
</g>
</svg>
