<?xml version="1.0" encoding="utf-8"?>
<!-- Generator: Adobe Illustrator 21.0.0, SVG Export Plug-In . SVG Version: 6.00 Build 0)  -->
<svg version="1.1" id="Capa_1" xmlns="http://www.w3.org/2000/svg" xmlns:xlink="http://www.w3.org/1999/xlink" x="0px" y="0px"
	 viewBox="0 0 90.7 90.7" style="enable-background:new 0 0 90.7 90.7;" xml:space="preserve">
<style type="text/css">
	.st0{fill:#EEBF00;}
	.st1{display:none;fill:#FFFFFF;}
	.st2{fill:#FFFFFF;}
</style>
<g id="icon" transform="translate(-914.645 -2312.643)">
	<g id="bg">
		<path class="st0" d="M960,2401.9c-2.3,0-4.4-0.9-6-2.5l-35.4-35.4c-1.6-1.6-2.5-3.7-2.5-6c0-2.3,0.9-4.4,2.5-6l35.4-35.4
			c1.6-1.6,3.7-2.5,6-2.5s4.4,0.9,6,2.5l35.4,35.4c1.6,1.6,2.5,3.7,2.5,6c0,2.3-0.9,4.4-2.5,6l-35.4,35.4
			C964.4,2401,962.3,2401.9,960,2401.9z"/>
		<path class="st0" d="M960,2315.6c-1.9,0-3.6,0.7-4.9,2.1l-35.4,35.4c-1.3,1.3-2.1,3.1-2.1,4.9s0.7,3.6,2.1,4.9l35.4,35.4
			c1.3,1.3,3.1,2,4.9,2s3.6-0.7,4.9-2l35.4-35.4c1.3-1.3,2.1-3.1,2.1-4.9s-0.7-3.6-2.1-4.9l-35.4-35.4
			C963.6,2316.4,961.9,2315.6,960,2315.6 M960,2312.6c2.6,0,5.1,1,7.1,2.9l35.4,35.4c3.9,3.9,3.9,10.2,0,14.1l-35.4,35.4
			c-2,2-4.5,2.9-7.1,2.9s-5.1-1-7.1-2.9l-35.4-35.4c-3.9-3.9-3.9-10.2,0-14.1l35.4-35.4C954.9,2313.6,957.4,2312.6,960,2312.6z"/>
	</g>
	<path id="_" class="st1" d="M955.7,2348.7v-2.1h8.6v2.1H955.7z M949.8,2348.7h-1.1c-2.1,0-3.7,1.7-3.8,3.8v13.9
		c0,2.1,1.7,3.7,3.8,3.8h1.1V2348.7z M968.6,2348.7h-2.1v-2.7c0-0.9-0.7-1.6-1.6-1.6h-9.6c-0.9,0-1.6,0.7-1.6,1.6v2.7h-2.1v21.4
		h17.1L968.6,2348.7z M975,2352.5c0-2.1-1.7-3.7-3.7-3.8h-1.1v21.4h1.1c2.1,0,3.7-1.7,3.7-3.8V2352.5z"/>
</g>
<g>
	<g>
		<path class="st2" d="M34,33.8c0.7-0.6,1.7-0.9,2.6-0.7c0.7,0.1,1.4,0.4,2,0.9c0.6,0.6,1.1,1.1,1.7,1.7c0.1,0.1,0.2,0.2,0.4,0.3
			c0.2,0.1,0.2,0.3,0.4,0.5c2,2,3.9,3.9,5.9,5.9c3.1-2.9,6.3-5.8,9.4-8.7c0.4-0.4,0.9-0.6,1.5-0.6c1.4-0.1,2.7,1.2,2.5,2.6
			c0,0.5-0.2,1-0.6,1.4c-5.4,5.8-10.7,11.6-16.1,17.5c-0.4,0.5-1,0.7-1.6,0.7c0.2,1-0.1,2-0.7,2.7c-1.1,1.2-2.5,2-4.1,2.5
			c-1.7,0.5-3.5,0.6-5.2,0.3c-0.5-0.1-1-0.3-1.5-0.6c-0.3-0.3-0.4-0.8-0.1-1.1c0.2-0.2,0.4-0.3,0.7-0.4c0.7-0.3,1.4-0.9,1.8-1.6
			c0.5-0.9,0.7-1.9,1.2-2.9c0.4-1,1.1-1.9,2-2.4c0.7-0.4,1.5-0.5,2.3-0.4c0-0.5,0.2-1,0.6-1.3c0.9-0.9,1.9-1.7,2.8-2.6
			c-2.7-2.7-5.4-5.4-8.1-8.1c-0.9-0.9-1.2-2.4-0.7-3.6C32.9,34.8,33.4,34.3,34,33.8z M35.5,34.8c-0.4,0.1-0.7,0.5-1,0.8
			c-0.5,0.6-0.6,1.5-0.2,2.1c0.2,0.3,0.5,0.6,0.7,0.8c0.4,0.4,0.7,0.7,1.1,1.1c0.9-1,1.9-1.9,2.8-2.8c-0.5-0.5-1-1-1.5-1.5
			C36.9,34.6,36.1,34.5,35.5,34.8z M57.6,34.7c-0.1,0-0.2,0.1-0.2,0.2C51.5,40.2,45.7,45.6,39.9,51c-0.2,0.2-0.1,0.5,0,0.7
			c0.3,0.6,0.9,1.2,1.5,1.6c0.3,0.2,0.6,0.3,0.9,0.3c0.2-0.1,0.3-0.3,0.5-0.5C48,47.4,53.2,41.7,58.5,36c0.2-0.2,0.3-0.5,0.2-0.8
			C58.5,34.8,58,34.5,57.6,34.7z M37.2,40.6c1.8,1.8,3.7,3.7,5.5,5.5c1-0.9,2-1.8,2.9-2.7c-1.9-1.9-3.8-3.8-5.6-5.6
			C39.1,38.7,38.2,39.7,37.2,40.6z M36.9,52.8c-0.5,0.3-0.9,0.8-1.2,1.3c-0.6,1-0.8,2.3-1.4,3.3c-0.3,0.7-0.8,1.3-1.4,1.7
			c1.1,0.1,2.2,0,3.2-0.2c1.5-0.3,2.9-1,3.9-2.1c0.4-0.4,0.5-1.1,0.3-1.6c-0.3-1-1.1-1.9-2.1-2.3C37.9,52.7,37.4,52.6,36.9,52.8z"/>
	</g>
	<g>
		<path class="st2" d="M51.4,49.1c0.4-0.4,0.7-0.8,1-1.2c1.2,1.3,2.5,2.5,3.7,3.7c0.2,0.2,0.4,0.2,0.5,0.4c0.2,0.3,0.4,0.5,0.6,0.8
			c0.7,1.2,1.2,2.5,1.7,3.8c0.3,0.8,0.6,1.6,0.9,2.5c0.1,0.3-0.1,0.7-0.3,0.9c-0.2,0.3-0.6,0.5-0.9,0.4c-1.4-0.5-2.8-1-4.2-1.6
			c-0.7-0.3-1.5-0.7-2.2-1.1c-0.4-0.2-0.7-0.6-1-0.9c-1.1-1.1-2.3-2.3-3.4-3.4c0.3-0.4,0.7-0.8,1-1.2c1.1,1.1,2.2,2.2,3.2,3.2
			c0.9-0.9,1.9-1.9,2.8-2.8C53.7,51.4,52.6,50.3,51.4,49.1z M53.2,56.5c1.5,0.8,3.1,1.4,4.7,2c-0.6-1.6-1.2-3.2-2-4.7
			C55,54.7,54.1,55.6,53.2,56.5z"/>
	</g>
</g>
</svg>
