<?xml version="1.0" encoding="utf-8"?>
<!-- Generator: Adobe Illustrator 21.0.0, SVG Export Plug-In . SVG Version: 6.00 Build 0)  -->
<svg version="1.1" id="Capa_1" xmlns="http://www.w3.org/2000/svg" xmlns:xlink="http://www.w3.org/1999/xlink" x="0px" y="0px"
	 viewBox="0 0 90.7 90.7" style="enable-background:new 0 0 90.7 90.7;" xml:space="preserve">
<style type="text/css">
	.st0{fill:#FFFFFF;}
	.st1{fill:#232B38;}
</style>
<g id="icon" transform="translate(-1322.645 -2306.643)">
	<g id="bg">
		<path class="st0" d="M1368,2395.9c-2.3,0-4.4-0.9-6-2.5l-35.4-35.4c-1.6-1.6-2.5-3.7-2.5-6s0.9-4.4,2.5-6l35.4-35.4
			c1.6-1.6,3.7-2.5,6-2.5s4.4,0.9,6,2.5l35.4,35.4c1.6,1.6,2.5,3.7,2.5,6s-0.9,4.4-2.5,6l-35.4,35.4
			C1372.4,2395,1370.3,2395.9,1368,2395.9z"/>
		<path class="st1" d="M1368,2309.6c-1.9,0-3.6,0.7-4.9,2.1l-35.4,35.4c-1.3,1.3-2.1,3.1-2.1,4.9c0,1.9,0.7,3.6,2.1,5l35.4,35.4
			c1.3,1.3,3.1,2,4.9,2s3.6-0.7,4.9-2l35.4-35.4c1.3-1.3,2.1-3.1,2.1-5s-0.7-3.6-2.1-4.9l-35.4-35.4
			C1371.6,2310.4,1369.9,2309.6,1368,2309.6 M1368,2306.6c2.6,0,5.1,1,7.1,2.9l35.4,35.4c3.9,3.9,3.9,10.2,0,14.1l-35.4,35.4
			c-2,2-4.5,2.9-7.1,2.9s-5.1-1-7.1-2.9l-35.4-35.4c-3.9-3.9-3.9-10.2,0-14.1l35.4-35.4C1362.9,2307.6,1365.4,2306.6,1368,2306.6z"
			/>
	</g>
</g>
<g>
	<path class="st1" d="M49.2,39.9c-0.2-0.4-1.1-2-3.5-2c-1.1-0.1-2.3,0.2-3.2,0.9c-0.8,0.6-1.3,1.5-1.4,2.4c-0.2,1.2,0,2.4,0.5,3.4
		c0.5,1,1.1,1.9,2,2.5c0.6,0.5,1.5,0.7,2.3,0.5c0.9-0.2,1.6-0.7,2.2-1.3c0.8-0.9,1.3-2,1.5-3.2c0.2-0.9,0.1-1.9-0.2-2.7L49.2,39.9z"
		/>
	<path class="st1" d="M59.7,30c-9.6,0-19.2,0-28.9,0c-1.6-0.1-3.1,1.3-3.1,3c0,6.7,0,13.4,0,20.1c-0.1,1.6,1.3,3,2.9,3.1
		c3.6,0,7.3,0,10.9,0v3.1c-1.4,0-2.8,0-4.2,0c-0.3,0-0.8,0-0.7,0.4c0,0.3-0.1,0.7,0.2,1c0.5,0.1,1.1,0.1,1.6,0.1c5,0,10,0,15.1,0
		c0.8,0.2,0.8-1.5,0-1.4c-1.4,0-2.9,0-4.3,0c0-1,0-2.1,0-3.1c3.6,0,7.3,0,10.9,0c1.6,0,3-1.5,2.9-3.1c0-6.6,0-13.3,0-20
		C63.1,31.4,61.4,29.8,59.7,30z M61,52.9c0.1,0.6-0.4,1.3-1.1,1.3c-0.2,0-0.3,0-0.5,0c-0.2,0-0.3,0-0.5,0c-0.8,0-1.6,0-2.4,0h-2.8
		c0-0.1,0-0.2,0-0.4V52c-0.1-0.5-0.2-0.9-0.4-1.3L53,50.3c-0.4-0.5-0.9-1-1.5-1.3c-0.9-0.5-1.9-0.9-2.8-1.3
		c-0.6,1.3-1.2,2.6-1.9,3.9c-0.4-0.8-0.6-1.6-0.9-2.5c-0.4,0.1-0.8,0.1-1.2,0c-0.4,0.9-0.6,1.8-1,2.6c-0.6-1.3-1.2-2.6-1.9-3.9
		c-0.9,0.5-1.8,0.9-2.6,1.3c-0.4,0.2-0.8,0.4-1.1,0.7c-0.5,0.5-1,1.2-1.2,2C37,52.2,37,52.6,37,53c0,0.4,0,0.8,0,1.1h-0.3
		c0,0,0,0,0,0c-1.9,0-3.9,0-5.8,0c-0.4,0-0.9-0.3-1-0.7c-0.1-0.6,0-1.2,0-1.9c0-6.1,0-12.2,0-18.3c0-0.5,0.1-1.1,0.7-1.2
		c0.6-0.1,1.3-0.1,1.9-0.1c9.1,0,18.2,0,27.4,0c0.5,0,1.1,0.2,1.2,0.7C61,33.4,61,34,61,34.7C61,40.7,61,46.8,61,52.9z"/>
</g>
</svg>
