<svg id="Capa_1" data-name="Capa 1" xmlns="http://www.w3.org/2000/svg" viewBox="0 0 90.71 90.71"><defs><style>.cls-1{fill:#fff;}.cls-2{fill:#232b38;}</style></defs><title>scanner</title><g id="icon"><g id="Group_1" data-name="Group 1"><g id="bg"><path class="cls-1" d="M45.35,89.21a8.45,8.45,0,0,1-6-2.49L4,51.37a8.5,8.5,0,0,1,0-12L39.34,4a8.5,8.5,0,0,1,12,0L86.72,39.35a8.5,8.5,0,0,1,0,12L51.37,86.72A8.45,8.45,0,0,1,45.35,89.21Z" transform="translate(0 0)"/><path class="cls-2" d="M45.35,3a7,7,0,0,0-4.95,2.05L5,40.41a7,7,0,0,0,0,9.9L40.4,85.66a7,7,0,0,0,9.9,0L85.66,50.31a7,7,0,0,0,0-9.9L50.3,5.05A7,7,0,0,0,45.35,3m0-3a10,10,0,0,1,7.07,2.93L87.78,38.28a10,10,0,0,1,0,14.14L52.43,87.78a10,10,0,0,1-14.14,0L2.93,52.43a10,10,0,0,1,0-14.14L38.28,2.93A10,10,0,0,1,45.35,0Z" transform="translate(0 0)"/></g></g><path class="cls-2" d="M39.19,32a2.61,2.61,0,0,1,1.33.3l7.79,2.9c.39.15.78.28,1.17.45a1.73,1.73,0,0,1,.55.55L59,48.11a1.15,1.15,0,0,1,.23.58,1.7,1.7,0,0,1-.11.69,3.24,3.24,0,0,1,.27,1v.78a2.27,2.27,0,0,1-.89,1.68,8.23,8.23,0,0,1-1.41.67L44.1,59a9.51,9.51,0,0,1-.88.35,2.21,2.21,0,0,1-2.14-.42l-9.86-8a2.61,2.61,0,0,1-.79-1.4V48.48a2.25,2.25,0,0,1,1.43-2c.69-.24,1.39-.42,2.09-.64L46.1,42.21c-.23-.28-.48-.54-.72-.81l-6.79-7.58a1.65,1.65,0,0,1-.24-.46A1.1,1.1,0,0,1,39.19,32Zm7,11.88c-1.72.55-3.45,1.07-5.16,1.62l7.62,5c.48.33,1,.61,1.45,1l5.68-2.14c-.93-.57-1.87-1.1-2.81-1.66L46.5,43.81A.72.72,0,0,0,46.24,43.88ZM34,47.71l0,.06,8.48,6.18c.12.08.22.2.36.23.31-.07.58-.22.88-.31l5.16-2-8.67-5.64a4.47,4.47,0,0,0-.55-.34C37.78,46.51,35.89,47.12,34,47.71Zm5.84,6.88a.63.63,0,0,0-.32.28,1.62,1.62,0,0,0-.15,1.24,1.82,1.82,0,0,0,.24.45.51.51,0,0,0,.66.07A1.16,1.16,0,0,0,40.6,56a1.63,1.63,0,0,0-.21-1.22A.5.5,0,0,0,39.84,54.58Z" transform="translate(0 0)"/></g></svg>