<?xml version="1.0" encoding="utf-8"?>
<!-- Generator: Adobe Illustrator 21.0.0, SVG Export Plug-In . SVG Version: 6.00 Build 0)  -->
<svg version="1.1" xmlns="http://www.w3.org/2000/svg" xmlns:xlink="http://www.w3.org/1999/xlink" x="0px" y="0px"
	 viewBox="0 0 90.7 90.7" style="enable-background:new 0 0 90.7 90.7;" xml:space="preserve">
<style type="text/css">
	.st0{fill:#EEBF00;}
	.st1{display:none;fill:#FFFFFF;}
	.st2{fill:#FFFFFF;}
</style>
<g id="Capa_1">
	<g id="icon" transform="translate(-914.645 -2312.643)">
		<g id="bg">
			<path class="st0" d="M960,2401.9c-2.3,0-4.4-0.9-6-2.5l-35.4-35.4c-1.6-1.6-2.5-3.7-2.5-6c0-2.3,0.9-4.4,2.5-6l35.4-35.4
				c1.6-1.6,3.7-2.5,6-2.5s4.4,0.9,6,2.5l35.4,35.4c1.6,1.6,2.5,3.7,2.5,6c0,2.3-0.9,4.4-2.5,6l-35.4,35.4
				C964.4,2401,962.3,2401.9,960,2401.9z"/>
			<path class="st0" d="M960,2315.6c-1.9,0-3.6,0.7-4.9,2.1l-35.4,35.4c-1.3,1.3-2.1,3.1-2.1,4.9s0.7,3.6,2.1,4.9l35.4,35.4
				c1.3,1.3,3.1,2,4.9,2s3.6-0.7,4.9-2l35.4-35.4c1.3-1.3,2.1-3.1,2.1-4.9s-0.7-3.6-2.1-4.9l-35.4-35.4
				C963.6,2316.4,961.9,2315.6,960,2315.6 M960,2312.6c2.6,0,5.1,1,7.1,2.9l35.4,35.4c3.9,3.9,3.9,10.2,0,14.1l-35.4,35.4
				c-2,2-4.5,2.9-7.1,2.9s-5.1-1-7.1-2.9l-35.4-35.4c-3.9-3.9-3.9-10.2,0-14.1l35.4-35.4C954.9,2313.6,957.4,2312.6,960,2312.6z"/>
		</g>
		<path id="_" class="st1" d="M955.7,2348.7v-2.1h8.6v2.1H955.7z M949.8,2348.7h-1.1c-2.1,0-3.7,1.7-3.8,3.8v13.9
			c0,2.1,1.7,3.7,3.8,3.8h1.1V2348.7z M968.6,2348.7h-2.1v-2.7c0-0.9-0.7-1.6-1.6-1.6h-9.6c-0.9,0-1.6,0.7-1.6,1.6v2.7h-2.1v21.4
			h17.1L968.6,2348.7z M975,2352.5c0-2.1-1.7-3.7-3.7-3.8h-1.1v21.4h1.1c2.1,0,3.7-1.7,3.7-3.8V2352.5z"/>
		<g>
			<path class="st2" d="M974.8,2366.1c-0.2-0.5-0.8-0.8-1.3-0.8c-0.3,0-0.6,0.2-0.9,0.3c-1.2,0.5-2.4,1-3.6,1.6
				c-0.9,0.4-1.8,0.8-2.7,1.3c-0.8,0.4-1.7,0.8-2.6,1c-0.3,0.1-0.6,0-0.8,0c-0.6,0-1.1,0-1.7,0c-0.8-0.1-1.6-0.2-2.4-0.4
				c-0.2,0-0.3-0.4-0.1-0.5c0.2-0.1,0.4-0.2,0.7-0.2c1,0.2,2.1,0.1,3.1,0c0.7-0.1,1.3-0.3,1.8-0.8c0.3-0.3,0.5-0.7,0.5-1.2
				c0-0.4-0.3-0.8-0.6-0.9c-0.3-0.2-0.6-0.3-1-0.4c-0.8-0.1-1.6-0.1-2.4-0.2c-0.7-0.1-1.5-0.2-2.1-0.6c-0.4-0.2-0.9-0.3-1.4-0.5
				c-2.2-0.7-4.6-0.5-7-0.4c0-0.3,0-0.7-0.2-1c-0.2-0.3-0.5-0.3-0.8-0.3c-1.4,0-2.9,0-4.3,0.1c0.1,1.2,0.2,2.4,0.5,3.6
				c0.5,2,1.3,4,2.4,5.8c0.1,0.1,0.2,0.2,0.4,0.2c0.5,0,0.9,0,1.4,0c0.2,0,0.5-0.1,0.6-0.3c0.2-0.3,0.1-0.6,0.1-0.9
				c2.5,0.7,5,1.5,7.5,2.2c0.9,0.3,1.9,0.5,2.9,0.7c1.1,0.1,2.3,0,3.4-0.6c0.3-0.2,0.7-0.3,1.1-0.4c3.2-1.2,6.1-3,9-4.8
				c0.2-0.2,0.4-0.4,0.5-0.6c0.1-0.2,0.2-0.3,0.3-0.5C975,2366.6,974.9,2366.3,974.8,2366.1z"/>
			<path class="st2" d="M965.1,2368c0,0,0.1,0.1,0.1,0.1c1.1-0.5,2.2-1.1,3.4-1.6c1.1-0.5,2.1-1,3.3-1.4c0.1-0.1,0.3-0.1,0.3-0.3
				c-0.2-0.3-0.4-0.6-0.7-0.7c-0.3-0.1-0.6-0.2-1-0.1c-1.7,0.6-3.4,1.3-5.1,2C965.6,2366.8,965.5,2367.5,965.1,2368z"/>
			<path class="st2" d="M958.5,2360.6c0.1,0.6,0.5,1.1,1.2,1.2c0.2,0.4,0.4,0.7,0.8,0.8l0.3,0c0.4-0.1,0.7-0.4,0.8-0.8
				c0.6-0.1,1.1-0.6,1.1-1.2C961.4,2360.6,960,2360.6,958.5,2360.6z"/>
			<path class="st2" d="M956.1,2345.6c0.3,0.5,1.1,0.2,1.2-0.3c0.1-0.5-0.4-0.9-0.6-1.3c-0.3-0.4-0.7-1.1-1.3-0.8
				c-0.4,0.2-0.6,0.7-0.3,1.1C955.4,2344.7,955.8,2345.1,956.1,2345.6z"/>
			<path class="st2" d="M965.3,2345.6c0.4-0.5,0.7-0.9,1-1.5c0.3-0.6-0.4-1.3-1-0.9c-0.4,0.3-0.6,0.7-0.9,1.1
				c-0.2,0.3-0.6,0.7-0.4,1.1C964.3,2345.8,965,2346,965.3,2345.6z"/>
			<path class="st2" d="M955.9,2348.9c-0.5,1.4-0.4,3,0.3,4.2c0.7,1,1.5,2,2.1,3.1c0.1,0.6,0,1.1,0,1.7c1.6,0,3.1,0,4.7,0
				c0-0.6,0-1.1,0.1-1.7c0.6-1.1,1.4-2,2.1-3.1c1.2-2,0.7-4.8-1.1-6.3c-1.1-1-2.7-1.4-4.2-1.2C958.1,2346,956.6,2347.3,955.9,2348.9
				z"/>
			<path class="st2" d="M952.3,2348.7c0.5,0.2,1.1,0.4,1.6,0.5c0.6,0.2,1.1-0.5,0.8-1c-0.3-0.4-0.8-0.4-1.2-0.6
				c-0.5-0.1-1-0.4-1.4-0.1C951.8,2347.8,951.8,2348.5,952.3,2348.7z"/>
			<path class="st2" d="M967.3,2349.3c0.6-0.3,1.4-0.4,2-0.7c0.5-0.4,0-1.4-0.6-1.2c-0.6,0.2-1.3,0.3-1.9,0.7
				C966.3,2348.5,966.7,2349.3,967.3,2349.3z"/>
			<path class="st2" d="M952.7,2354c0.6-0.2,1.3-0.3,1.9-0.7c0.6-0.5-0.2-1.5-0.8-1.1c-0.6,0.2-1.3,0.3-1.8,0.7
				C951.6,2353.3,952.1,2354.1,952.7,2354z"/>
			<path class="st2" d="M966.9,2353.4c0.6,0.2,1.2,0.4,1.8,0.6c0.5,0.1,1-0.5,0.8-0.9c-0.2-0.5-0.8-0.5-1.2-0.7
				c-0.5-0.1-1-0.4-1.4-0.2C966.4,2352.5,966.4,2353.2,966.9,2353.4z"/>
			<path class="st2" d="M956.1,2358.1c0.4-0.5,0.8-1,1.1-1.5c0.4-0.6-0.4-1.3-1-0.9c-0.5,0.5-0.9,1.1-1.3,1.7
				C954.7,2358,955.6,2358.6,956.1,2358.1z"/>
			<path class="st2" d="M965.4,2356c-0.2-0.3-0.6-0.5-1-0.3c-0.3,0.2-0.5,0.6-0.3,0.9c0.3,0.5,0.7,1.1,1.1,1.5
				c0.4,0.4,1.3-0.1,1.1-0.7C966.2,2356.9,965.7,2356.4,965.4,2356z"/>
			<path class="st2" d="M963,2359.6c0.3-0.3,0.1-0.9-0.3-0.9c-1.3,0-2.6,0-3.9,0c-0.6,0-0.6,1,0,1c1.2,0.1,2.3,0,3.5,0
				C962.5,2359.8,962.8,2359.9,963,2359.6z"/>
			<path class="st2" d="M960.7,2344.6c0.4,0,0.7-0.3,0.7-0.7v-1.7c0-0.4-0.3-0.7-0.7-0.7c-0.4,0-0.7,0.3-0.7,0.7v1.7
				C960,2344.3,960.3,2344.6,960.7,2344.6z"/>
		</g>
	</g>
</g>
<g id="Capa_2">
</g>
</svg>
